<?xml version="1.0" encoding="UTF-8"?>
<svg xmlns="http://www.w3.org/2000/svg" xmlns:xlink="http://www.w3.org/1999/xlink" width="130px" height="82px" viewBox="0 0 129 82" version="1.1">
<g id="surface1">
<path style=" stroke:none;fill-rule:nonzero;fill:rgb(0%,0%,0%);fill-opacity:1;" d="M 57.75 14.816406 C 49.75 16.753906 42.785156 23.644531 40.636719 31.699219 C 39.730469 35.058594 39.730469 41.128906 40.636719 44.230469 C 42.957031 52.242188 48.890625 58.3125 56.761719 60.769531 C 60.070312 61.800781 65.359375 61.972656 68.800781 61.199219 C 80.109375 58.570312 88.0625 47.761719 87.160156 36.21875 C 86.386719 26.054688 79.207031 17.441406 69.402344 14.859375 C 66.433594 14.082031 60.84375 14.082031 57.75 14.816406 Z M 69.445312 15.933594 C 72.929688 16.925781 75.421875 18.132812 77.226562 19.683594 C 77.914062 20.285156 78.90625 21.101562 79.421875 21.535156 C 80.925781 22.695312 84.152344 27.777344 84.96875 30.277344 C 85.828125 32.816406 86.171875 35.359375 86.171875 38.761719 C 86.128906 41.816406 85.871094 43.109375 84.710938 46.296875 C 82.214844 52.886719 76.882812 57.710938 69.359375 60.121094 C 66.390625 61.027344 59.296875 60.726562 55.898438 59.519531 C 50.695312 57.667969 45.839844 53.402344 43.429688 48.621094 C 41.539062 44.960938 40.980469 42.507812 40.9375 37.941406 C 40.894531 31.523438 43 26.3125 47.558594 21.707031 C 53.191406 16.019531 61.789062 13.738281 69.445312 15.933594 Z M 69.445312 15.933594 "/>
<path style=" stroke:none;fill-rule:nonzero;fill:rgb(0%,0%,0%);fill-opacity:1;" d="M 59.769531 20.757812 C 57.707031 21.664062 53.835938 25.152344 52.246094 27.605469 C 50.867188 29.757812 50.566406 31.914062 50.566406 39.191406 C 50.609375 47.675781 50.738281 49.011719 51.988281 51.378906 C 53.578125 54.523438 55.984375 55.644531 61.144531 55.6875 C 66.132812 55.730469 68.113281 55.167969 70.433594 53.144531 C 71.636719 52.113281 72.800781 51.25 73.015625 51.25 C 73.875 51.25 75.679688 48.578125 76.28125 46.382812 C 77.097656 43.539062 76.925781 39.921875 75.9375 38.804688 C 75.335938 38.15625 74.691406 37.984375 72.671875 38.070312 C 69.875 38.199219 68.800781 38.890625 68.800781 40.65625 C 68.800781 41.558594 68.585938 41.773438 67.726562 41.773438 C 67.078125 41.773438 66.175781 42.25 65.617188 42.851562 C 64.585938 43.972656 63.8125 44.1875 62.824219 43.539062 C 62.050781 43.066406 61.660156 32.300781 62.394531 31.871094 C 62.652344 31.699219 63.296875 31.65625 63.898438 31.785156 C 64.757812 31.957031 64.929688 32.214844 64.929688 33.59375 C 64.929688 35.660156 65.875 36.476562 68.542969 36.5625 C 70.90625 36.605469 72.757812 35.703125 72.585938 34.539062 C 72.496094 34.023438 72.800781 33.765625 73.746094 33.679688 C 76.152344 33.378906 76.667969 32.472656 76.410156 28.984375 C 76.109375 24.675781 74.734375 22.050781 72.195312 20.800781 C 69.617188 19.550781 62.695312 19.507812 59.769531 20.757812 Z M 70.304688 21.101562 C 73.617188 21.835938 75.679688 25.496094 75.679688 30.578125 C 75.679688 32.558594 75.035156 32.902344 71.765625 32.644531 L 69.875 32.515625 L 69.660156 30.578125 C 69.53125 29.5 69.273438 28.382812 69.101562 28.078125 C 68.628906 27.390625 62.738281 27.347656 62.007812 28.078125 C 61.101562 28.984375 61.445312 29.328125 62.566406 28.597656 C 63.253906 28.164062 63.640625 28.078125 63.640625 28.382812 C 63.640625 28.769531 63.898438 28.769531 64.628906 28.382812 C 65.574219 27.863281 65.574219 27.863281 64.757812 28.8125 C 64.285156 29.285156 64.113281 29.714844 64.371094 29.714844 C 64.585938 29.714844 65.144531 29.328125 65.574219 28.855469 C 66.476562 27.863281 67.46875 27.648438 66.648438 28.640625 C 66.304688 29.027344 66.261719 29.285156 66.5625 29.285156 C 66.820312 29.285156 67.164062 29.070312 67.296875 28.855469 C 67.425781 28.597656 67.8125 28.425781 68.070312 28.425781 C 68.371094 28.46875 68.027344 28.941406 67.296875 29.5 C 66.605469 30.105469 66.261719 30.578125 66.605469 30.578125 C 67.078125 30.578125 67.078125 30.707031 66.648438 31.222656 C 66.21875 31.742188 66.21875 31.871094 66.648438 31.871094 C 67.078125 31.871094 67.078125 32 66.648438 32.515625 C 66.347656 32.859375 65.917969 33.160156 65.703125 33.160156 C 65.445312 33.160156 65.488281 32.859375 65.789062 32.515625 C 66.21875 32 66.21875 31.871094 65.789062 31.871094 C 65.359375 31.871094 65.359375 31.742188 65.789062 31.222656 C 66.21875 30.707031 66.089844 30.621094 64.714844 30.792969 C 63.296875 31.007812 63.167969 30.921875 63.640625 30.363281 C 64.027344 29.886719 64.027344 29.714844 63.683594 29.714844 C 63.382812 29.714844 63.296875 29.5 63.425781 29.285156 C 63.8125 28.640625 63.339844 28.769531 62.136719 29.542969 C 61.058594 30.234375 61.058594 30.320312 61.058594 36.347656 C 61.058594 44.230469 61.230469 44.574219 64.929688 44.617188 C 69.101562 44.703125 69.574219 44.402344 69.746094 41.6875 L 69.875 39.40625 L 72.800781 39.277344 L 75.679688 39.148438 L 75.679688 42.722656 C 75.679688 46.898438 74.691406 49.140625 72.238281 50.5625 C 70.949219 51.335938 70.003906 51.464844 65.574219 51.464844 C 59.296875 51.464844 58.007812 50.90625 56.328125 47.589844 C 55.296875 45.480469 55.253906 45.175781 55.253906 36.390625 C 55.253906 27.605469 55.296875 27.304688 56.328125 25.238281 C 56.933594 24.03125 57.878906 22.738281 58.480469 22.308594 C 60.457031 20.886719 66.648438 20.242188 70.304688 21.101562 Z M 54.824219 26.269531 C 54.136719 26.960938 53.363281 27.5625 53.148438 27.5625 C 52.632812 27.519531 55.253906 24.980469 55.769531 24.980469 C 55.941406 24.980469 55.511719 25.539062 54.824219 26.269531 Z M 54.738281 27.648438 C 54.566406 27.949219 54.394531 28.726562 54.394531 29.371094 C 54.394531 30.191406 53.964844 30.878906 52.933594 31.65625 C 51.300781 32.859375 51.429688 33.160156 53.105469 32.042969 C 53.707031 31.65625 54.179688 31.523438 54.179688 31.742188 C 54.179688 31.957031 53.578125 32.472656 52.847656 32.902344 C 52.117188 33.335938 51.644531 33.765625 51.773438 33.9375 C 51.902344 34.066406 52.375 33.851562 52.804688 33.464844 C 53.234375 33.03125 53.792969 32.730469 54.007812 32.730469 C 54.222656 32.773438 53.707031 33.335938 52.890625 34.023438 C 52.074219 34.753906 51.6875 35.316406 51.988281 35.316406 C 52.460938 35.316406 52.460938 35.445312 51.988281 36.046875 C 51.429688 36.691406 51.472656 36.691406 52.332031 36.261719 C 53.535156 35.617188 54.050781 34.796875 53.019531 35.1875 C 52.332031 35.445312 52.332031 35.402344 52.847656 34.753906 C 53.75 33.59375 54.09375 33.894531 54.007812 35.746094 C 53.964844 36.691406 54.09375 37.46875 54.308594 37.46875 C 54.523438 37.46875 54.480469 37.769531 54.179688 38.113281 C 53.75 38.632812 53.75 38.761719 54.179688 38.761719 C 54.609375 38.761719 54.609375 38.890625 54.179688 39.40625 C 53.75 39.921875 53.75 40.050781 54.179688 40.050781 C 54.609375 40.050781 54.609375 40.183594 54.179688 40.699219 C 53.792969 41.171875 53.792969 41.34375 54.136719 41.34375 C 54.4375 41.34375 54.523438 41.515625 54.394531 41.773438 C 54.265625 41.992188 53.921875 42.207031 53.707031 42.207031 C 53.449219 42.207031 53.40625 41.992188 53.535156 41.773438 C 53.921875 41.128906 53.449219 41.257812 52.246094 42.035156 C 51.644531 42.421875 51.171875 42.550781 51.171875 42.335938 C 51.171875 42.121094 51.773438 41.601562 52.503906 41.171875 C 53.234375 40.742188 53.707031 40.3125 53.578125 40.136719 C 53.449219 40.007812 52.976562 40.226562 52.546875 40.613281 C 52.117188 41.042969 51.558594 41.34375 51.34375 41.34375 C 51.128906 41.300781 51.644531 40.742188 52.460938 40.050781 C 53.277344 39.320312 53.664062 38.761719 53.363281 38.761719 C 52.890625 38.761719 52.890625 38.632812 53.320312 38.113281 C 53.75 37.597656 53.75 37.46875 53.320312 37.46875 C 52.933594 37.46875 52.933594 37.296875 53.363281 36.738281 C 53.921875 36.089844 53.878906 36.089844 53.019531 36.519531 C 51.816406 37.167969 51.300781 37.984375 52.332031 37.597656 C 53.019531 37.339844 53.019531 37.382812 52.289062 38.285156 C 51.429688 39.234375 51.429688 39.234375 52.289062 38.933594 C 53.019531 38.632812 53.019531 38.675781 52.503906 39.320312 C 52.203125 39.707031 51.773438 40.050781 51.644531 40.050781 C 51.472656 40.050781 51.34375 38.199219 51.34375 35.960938 L 51.386719 31.828125 L 52.804688 30.921875 C 53.578125 30.449219 54.09375 29.933594 53.964844 29.800781 C 53.878906 29.671875 53.40625 29.886719 52.976562 30.277344 C 52.03125 31.136719 51.300781 31.265625 51.988281 30.449219 C 52.246094 30.105469 52.289062 29.714844 52.117188 29.542969 C 51.945312 29.371094 52.417969 28.726562 53.105469 28.164062 C 54.523438 27.046875 55.296875 26.832031 54.738281 27.648438 Z M 68.371094 29.933594 C 68.070312 30.277344 68.027344 30.578125 68.242188 30.578125 C 69.230469 30.578125 68.628906 32.34375 67.296875 33.335938 C 65.1875 34.96875 64.84375 34.667969 66.863281 32.902344 C 67.855469 32.085938 68.199219 31.566406 67.726562 31.742188 C 66.949219 32 66.949219 31.957031 67.46875 31.308594 C 67.898438 30.75 67.898438 30.578125 67.511719 30.578125 C 67.078125 30.578125 67.078125 30.449219 67.511719 29.933594 C 67.8125 29.585938 68.242188 29.285156 68.457031 29.285156 C 68.714844 29.285156 68.671875 29.585938 68.371094 29.933594 Z M 62.78125 30.363281 C 62.480469 30.707031 62.050781 31.007812 61.835938 31.007812 C 61.574219 31.007812 61.617188 30.707031 61.921875 30.363281 C 62.222656 30.019531 62.652344 29.714844 62.867188 29.714844 C 63.125 29.714844 63.082031 30.019531 62.78125 30.363281 Z M 68.800781 33.378906 C 68.371094 33.894531 68.371094 34.023438 68.84375 34.023438 C 69.1875 34.023438 68.886719 34.539062 68.15625 35.1875 C 67.425781 35.832031 66.820312 36.089844 66.734375 35.789062 C 66.648438 35.53125 66.390625 35.402344 66.175781 35.574219 C 65.1875 36.175781 65.917969 34.96875 67.164062 33.9375 C 68.714844 32.644531 69.660156 32.34375 68.800781 33.378906 Z M 71.808594 33.507812 C 71.808594 33.59375 71.378906 34.066406 70.863281 34.496094 L 69.875 35.359375 L 70.863281 34.882812 C 72.023438 34.324219 72.152344 34.882812 70.992188 35.617188 C 70.347656 36.046875 70.132812 36.046875 69.960938 35.617188 C 69.832031 35.230469 69.617188 35.230469 69.101562 35.703125 C 68.671875 36.003906 68.371094 36.132812 68.371094 35.917969 C 68.371094 35.746094 68.886719 35.101562 69.574219 34.582031 C 70.347656 33.894531 70.476562 33.679688 69.917969 33.894531 C 69.402344 34.066406 69.1875 34.023438 69.359375 33.722656 C 69.617188 33.289062 71.808594 33.160156 71.808594 33.507812 Z M 52.503906 43.109375 C 51.945312 43.585938 51.386719 43.84375 51.257812 43.714844 C 50.953125 43.453125 52.503906 42.25 53.105469 42.25 C 53.363281 42.25 53.0625 42.636719 52.503906 43.109375 Z M 68.585938 42.464844 C 69.1875 42.722656 69.1875 42.808594 68.542969 43.539062 C 68.15625 44.015625 67.597656 44.359375 67.382812 44.359375 C 67.121094 44.359375 67.296875 43.929688 67.769531 43.410156 C 68.628906 42.421875 67.898438 42.679688 66.5625 43.84375 C 66.132812 44.1875 65.789062 44.273438 65.789062 44.058594 C 65.789062 43.800781 66.21875 43.28125 66.777344 42.9375 C 67.941406 42.121094 67.726562 42.164062 68.585938 42.464844 Z M 54.480469 43.367188 C 54.480469 43.800781 54.050781 44.445312 53.578125 44.875 C 53.0625 45.261719 52.890625 45.609375 53.148438 45.652344 C 53.363281 45.652344 53.792969 45.4375 54.09375 45.132812 C 54.394531 44.832031 54.609375 44.789062 54.609375 45.003906 C 54.609375 45.261719 53.921875 45.910156 53.105469 46.46875 C 52.246094 47.03125 51.6875 47.589844 51.816406 47.71875 C 51.945312 47.847656 52.289062 47.71875 52.546875 47.460938 C 52.847656 47.160156 53.277344 46.941406 53.535156 46.941406 C 53.75 46.988281 53.492188 47.375 52.933594 47.847656 C 51.773438 48.796875 51.515625 48.710938 51.34375 47.117188 C 51.257812 46.339844 51.558594 45.695312 52.160156 45.175781 C 52.675781 44.746094 52.890625 44.402344 52.675781 44.359375 C 52.417969 44.359375 51.988281 44.574219 51.6875 44.875 C 51.386719 45.175781 51.171875 45.21875 51.171875 44.960938 C 51.171875 44.574219 53.707031 42.636719 54.222656 42.636719 C 54.351562 42.636719 54.480469 42.980469 54.480469 43.367188 Z M 54.910156 46.339844 C 54.78125 46.511719 55.039062 47.375 55.511719 48.320312 C 56.199219 49.65625 56.285156 50.171875 55.855469 50.648438 C 55.597656 50.992188 55.167969 51.25 54.910156 51.25 C 54.695312 51.25 54.824219 50.863281 55.253906 50.386719 C 56.027344 49.527344 56.027344 49.484375 55.210938 49.785156 C 54.480469 50.085938 54.480469 50.042969 54.996094 49.398438 C 55.511719 48.710938 55.511719 48.664062 54.78125 48.96875 C 54.050781 49.226562 54.050781 49.183594 54.566406 48.535156 C 55.425781 47.460938 54.695312 47.632812 53.234375 48.882812 C 52.546875 49.484375 52.160156 49.957031 52.417969 49.957031 C 52.632812 49.957031 52.976562 49.742188 53.105469 49.527344 C 53.234375 49.269531 53.578125 49.097656 53.835938 49.097656 C 54.09375 49.097656 53.964844 49.527344 53.492188 50.042969 C 53.0625 50.605469 52.976562 50.777344 53.320312 50.476562 C 53.664062 50.214844 54.136719 49.957031 54.394531 49.957031 C 54.609375 50 54.351562 50.386719 53.792969 50.863281 L 52.71875 51.722656 L 52.117188 50.605469 C 51.601562 49.570312 51.601562 49.398438 52.332031 48.882812 C 54.351562 47.375 54.78125 46.988281 54.265625 46.941406 C 53.578125 46.941406 54.007812 46.082031 54.695312 46.082031 C 54.953125 46.082031 55.082031 46.210938 54.910156 46.339844 Z M 58.738281 51.679688 C 59.941406 52.113281 60.15625 52.285156 59.726562 52.800781 C 59.46875 53.144531 59.039062 53.402344 58.824219 53.402344 C 58.566406 53.402344 58.609375 53.101562 58.910156 52.757812 C 59.210938 52.414062 59.253906 52.113281 58.996094 52.113281 C 58.78125 52.113281 58.351562 52.414062 58.050781 52.757812 C 57.664062 53.230469 57.664062 53.402344 58.007812 53.402344 C 58.308594 53.402344 58.394531 53.574219 58.265625 53.835938 C 57.792969 54.566406 58.480469 54.308594 60.027344 53.144531 C 60.84375 52.5 61.488281 52.242188 61.488281 52.5 C 61.488281 52.886719 61.703125 52.886719 62.351562 52.542969 C 62.953125 52.199219 63.210938 52.199219 63.210938 52.542969 C 63.210938 52.886719 63.46875 52.886719 64.070312 52.542969 C 64.714844 52.199219 64.929688 52.199219 64.929688 52.628906 C 64.929688 53.015625 65.058594 53.015625 65.445312 52.628906 C 66.304688 51.765625 66.820312 52.066406 66.003906 52.972656 C 65.574219 53.445312 65.402344 53.835938 65.660156 53.835938 C 65.875 53.835938 66.433594 53.445312 66.863281 52.972656 C 67.296875 52.5 68.027344 52.15625 68.542969 52.199219 C 69.015625 52.199219 69.789062 52.066406 70.21875 51.894531 C 70.605469 51.722656 70.949219 51.679688 70.949219 51.765625 C 70.949219 52.15625 67.035156 54.78125 66.820312 54.566406 C 66.691406 54.4375 67.078125 54.007812 67.683594 53.574219 C 68.328125 53.1875 68.714844 52.757812 68.628906 52.628906 C 68.5 52.542969 67.640625 53.058594 66.734375 53.789062 C 64.929688 55.210938 64.027344 55.558594 64.929688 54.480469 C 65.316406 54.007812 65.316406 53.835938 64.972656 53.835938 C 64.671875 53.835938 64.585938 53.617188 64.714844 53.402344 C 65.144531 52.714844 64.542969 52.886719 63.167969 53.921875 C 61.878906 54.867188 58.050781 55.382812 58.050781 54.609375 C 58.050781 54.4375 57.707031 54.4375 57.320312 54.566406 C 56.632812 54.824219 56.632812 54.78125 57.148438 54.136719 C 57.578125 53.574219 57.621094 53.402344 57.191406 53.402344 C 56.804688 53.402344 56.890625 53.101562 57.40625 52.542969 C 58.179688 51.679688 58.179688 51.636719 57.40625 51.9375 C 56.847656 52.15625 56.71875 52.113281 56.933594 51.765625 C 57.40625 50.949219 56.804688 51.164062 55.339844 52.285156 C 54.222656 53.101562 53.878906 53.230469 53.449219 52.757812 C 53.105469 52.371094 53.0625 52.113281 53.449219 51.722656 C 54.179688 50.992188 54.78125 51.164062 54.179688 51.894531 C 53.40625 52.84375 53.792969 52.714844 55.46875 51.464844 C 56.285156 50.863281 57.019531 50.5625 57.105469 50.777344 C 57.191406 50.992188 57.921875 51.421875 58.738281 51.679688 Z M 56.113281 52.972656 C 55.339844 53.835938 55.339844 53.878906 56.15625 53.574219 C 56.761719 53.359375 56.847656 53.402344 56.503906 53.789062 C 56.242188 54.050781 55.726562 54.179688 55.296875 54.007812 C 54.609375 53.746094 54.609375 53.660156 55.296875 52.929688 C 55.683594 52.457031 56.242188 52.113281 56.460938 52.113281 C 56.71875 52.113281 56.546875 52.5 56.113281 52.972656 Z M 64.070312 54.480469 C 63.769531 54.824219 63.339844 55.125 63.125 55.125 C 62.867188 55.125 62.910156 54.824219 63.210938 54.480469 C 63.511719 54.136719 63.941406 53.835938 64.15625 53.835938 C 64.414062 53.835938 64.371094 54.136719 64.070312 54.480469 Z M 64.070312 54.480469 "/>
<path style=" stroke:none;fill-rule:nonzero;fill:rgb(0%,0%,0%);fill-opacity:1;" d="M 64.929688 29.933594 C 64.628906 30.277344 64.585938 30.578125 64.84375 30.578125 C 65.058594 30.578125 65.488281 30.277344 65.789062 29.933594 C 66.089844 29.585938 66.132812 29.285156 65.875 29.285156 C 65.660156 29.285156 65.230469 29.585938 64.929688 29.933594 Z M 64.929688 29.933594 "/>
<path style=" stroke:none;fill-rule:nonzero;fill:rgb(0%,0%,0%);fill-opacity:1;" d="M 52.847656 29.15625 C 52.289062 29.800781 52.332031 29.800781 53.234375 29.328125 C 54.222656 28.8125 54.4375 28.425781 53.792969 28.425781 C 53.578125 28.425781 53.148438 28.726562 52.847656 29.15625 Z M 52.847656 29.15625 "/>
<path style=" stroke:none;fill-rule:nonzero;fill:rgb(0%,0%,0%);fill-opacity:1;" d="M 67.078125 34.667969 C 66.777344 35.011719 66.734375 35.316406 66.992188 35.316406 C 67.210938 35.316406 67.640625 35.011719 67.941406 34.667969 C 68.242188 34.324219 68.285156 34.023438 68.027344 34.023438 C 67.8125 34.023438 67.382812 34.324219 67.078125 34.667969 Z M 67.078125 34.667969 "/>
<path style=" stroke:none;fill-rule:nonzero;fill:rgb(0%,0%,0%);fill-opacity:1;" d="M 53.105469 43.929688 C 52.976562 44.144531 53.019531 44.359375 53.277344 44.359375 C 53.492188 44.359375 53.835938 44.144531 53.964844 43.929688 C 54.09375 43.671875 54.050781 43.496094 53.792969 43.496094 C 53.578125 43.496094 53.234375 43.671875 53.105469 43.929688 Z M 53.105469 43.929688 "/>
<path style=" stroke:none;fill-rule:nonzero;fill:rgb(0%,0%,0%);fill-opacity:1;" d="M 51.816406 46.082031 C 51.6875 46.296875 51.730469 46.511719 51.988281 46.511719 C 52.203125 46.511719 52.546875 46.296875 52.675781 46.082031 C 52.804688 45.824219 52.761719 45.652344 52.503906 45.652344 C 52.289062 45.652344 51.945312 45.824219 51.816406 46.082031 Z M 51.816406 46.082031 "/>
<path style=" stroke:none;fill-rule:nonzero;fill:rgb(0%,0%,0%);fill-opacity:1;" d="M 59.941406 53.878906 C 59.125 54.824219 59.125 54.824219 60.070312 54.308594 C 61.101562 53.789062 61.746094 52.972656 61.144531 52.972656 C 60.929688 52.972656 60.414062 53.402344 59.941406 53.878906 Z M 59.941406 53.878906 "/>
<path style=" stroke:none;fill-rule:nonzero;fill:rgb(0%,0%,0%);fill-opacity:1;" d="M 61.660156 53.921875 L 60.84375 54.824219 L 62.050781 54.050781 C 63.253906 53.273438 63.46875 52.972656 62.867188 52.972656 C 62.652344 52.972656 62.136719 53.402344 61.660156 53.921875 Z M 61.660156 53.921875 "/>
<path style=" stroke:none;fill-rule:nonzero;fill:rgb(0%,0%,0%);fill-opacity:1;" d="M 33.195312 65.980469 C 32.507812 66.667969 32.507812 72.007812 33.195312 72.699219 C 33.925781 73.429688 35.90625 73.34375 36.59375 72.523438 C 37.453125 71.449219 37.410156 70.628906 36.507812 70.628906 C 36.035156 70.628906 35.691406 70.933594 35.691406 71.320312 C 35.691406 71.707031 35.390625 71.921875 34.960938 71.835938 C 34.355469 71.75 34.140625 71.191406 34.054688 69.210938 C 33.925781 66.96875 34.011719 66.753906 34.828125 66.753906 C 35.304688 66.753906 35.691406 67.054688 35.691406 67.398438 C 35.691406 68.046875 36.765625 68.304688 37.109375 67.703125 C 37.238281 67.53125 37.152344 66.96875 36.9375 66.410156 C 36.679688 65.675781 36.25 65.460938 35.132812 65.460938 C 34.355469 65.460938 33.496094 65.675781 33.195312 65.980469 Z M 33.195312 65.980469 "/>
<path style=" stroke:none;fill-rule:nonzero;fill:rgb(0%,0%,0%);fill-opacity:1;" d="M 39.644531 65.980469 C 38.957031 66.667969 38.957031 72.007812 39.644531 72.699219 C 40.421875 73.472656 42.355469 73.34375 43.085938 72.4375 C 43.902344 71.535156 44.117188 66.925781 43.386719 66.066406 C 42.785156 65.332031 40.335938 65.289062 39.644531 65.980469 Z M 42.269531 69.339844 C 42.269531 71.363281 42.140625 71.707031 41.453125 71.707031 C 40.765625 71.707031 40.636719 71.320312 40.507812 69.210938 C 40.378906 66.839844 40.421875 66.710938 41.324219 66.839844 C 42.140625 66.96875 42.269531 67.226562 42.269531 69.339844 Z M 42.269531 69.339844 "/>
<path style=" stroke:none;fill-rule:nonzero;fill:rgb(0%,0%,0%);fill-opacity:1;" d="M 45.578125 68.820312 C 45.578125 72.480469 45.925781 73.214844 47.730469 73.214844 C 49.664062 73.214844 50.308594 72.050781 50.308594 68.5625 C 50.308594 65.71875 50.222656 65.460938 49.40625 65.460938 C 48.589844 65.460938 48.546875 65.675781 48.632812 68.5625 C 48.71875 71.40625 48.675781 71.707031 47.902344 71.707031 C 47.171875 71.707031 47.085938 71.363281 47.085938 68.5625 C 47.085938 65.894531 47 65.460938 46.355469 65.460938 C 45.664062 65.460938 45.578125 65.894531 45.578125 68.820312 Z M 45.578125 68.820312 "/>
<path style=" stroke:none;fill-rule:nonzero;fill:rgb(0%,0%,0%);fill-opacity:1;" d="M 52.03125 69.296875 C 52.03125 72.480469 52.160156 73.214844 52.675781 73.214844 C 53.105469 73.214844 53.320312 72.742188 53.320312 71.707031 C 53.320312 70.671875 53.535156 70.199219 53.964844 70.199219 C 54.308594 70.199219 54.695312 70.800781 54.867188 71.707031 C 55.082031 72.828125 55.339844 73.214844 55.984375 73.214844 C 56.675781 73.214844 56.761719 73.042969 56.460938 72.222656 C 56.285156 71.707031 56.113281 70.027344 56.113281 68.476562 L 56.113281 65.675781 L 54.09375 65.546875 L 52.03125 65.417969 Z M 55.039062 67.832031 C 55.039062 68.605469 54.824219 68.90625 54.179688 68.90625 C 53.535156 68.90625 53.320312 68.605469 53.320312 67.832031 C 53.320312 67.054688 53.535156 66.753906 54.179688 66.753906 C 54.824219 66.753906 55.039062 67.054688 55.039062 67.832031 Z M 55.039062 67.832031 "/>
<path style=" stroke:none;fill-rule:nonzero;fill:rgb(0%,0%,0%);fill-opacity:1;" d="M 58.996094 65.980469 C 58.695312 66.28125 58.480469 67.011719 58.480469 67.617188 C 58.480469 68.992188 59.210938 69.769531 60.5 69.769531 C 61.273438 69.769531 61.488281 70.027344 61.488281 70.84375 C 61.488281 72.050781 60.328125 72.351562 59.941406 71.277344 C 59.597656 70.371094 58.480469 70.457031 58.480469 71.40625 C 58.480469 72.480469 59.339844 73.214844 60.628906 73.214844 C 62.09375 73.214844 62.78125 72.480469 62.78125 70.84375 C 62.78125 69.253906 62.09375 68.476562 60.757812 68.476562 C 60.070312 68.476562 59.769531 68.21875 59.769531 67.617188 C 59.769531 66.539062 60.84375 66.496094 61.835938 67.488281 C 62.523438 68.175781 62.566406 68.132812 62.695312 67.441406 C 63.039062 65.808594 60.285156 64.6875 58.996094 65.980469 Z M 58.996094 65.980469 "/>
<path style=" stroke:none;fill-rule:nonzero;fill:rgb(0%,0%,0%);fill-opacity:1;" d="M 64.929688 69.382812 L 64.929688 73.257812 L 66.777344 73.128906 C 68.027344 73.042969 68.585938 72.785156 68.585938 72.351562 C 68.585938 71.921875 68.242188 71.75 67.425781 71.835938 C 66.390625 71.921875 66.21875 71.792969 66.21875 70.84375 C 66.21875 70.070312 66.433594 69.769531 67.078125 69.769531 C 67.554688 69.769531 67.941406 69.46875 67.941406 69.121094 C 67.941406 68.777344 67.554688 68.476562 67.078125 68.476562 C 66.519531 68.476562 66.21875 68.175781 66.21875 67.617188 C 66.21875 66.925781 66.519531 66.753906 67.511719 66.753906 C 68.371094 66.753906 68.800781 66.539062 68.800781 66.109375 C 68.800781 65.632812 68.285156 65.460938 66.863281 65.460938 L 64.929688 65.460938 Z M 64.929688 69.382812 "/>
<path style=" stroke:none;fill-rule:nonzero;fill:rgb(0%,0%,0%);fill-opacity:1;" d="M 70.519531 69.339844 C 70.519531 72.394531 70.648438 73.214844 71.121094 73.214844 C 71.550781 73.214844 71.765625 72.523438 71.894531 70.84375 C 71.9375 69.554688 71.894531 68.476562 71.722656 68.476562 C 71.507812 68.476562 71.378906 68.132812 71.378906 67.703125 C 71.421875 67.054688 71.464844 67.097656 71.894531 67.832031 C 72.195312 68.304688 72.410156 69.078125 72.453125 69.554688 C 72.453125 70.800781 73.832031 70.933594 74.089844 69.683594 C 74.175781 69.121094 74.304688 69.726562 74.347656 70.933594 C 74.390625 72.65625 74.5625 73.214844 75.035156 73.214844 C 75.550781 73.214844 75.679688 72.480469 75.679688 69.339844 C 75.679688 65.808594 75.59375 65.460938 74.863281 65.460938 C 74.304688 65.460938 73.960938 65.851562 73.746094 66.753906 C 73.574219 67.441406 73.316406 68.046875 73.101562 68.046875 C 72.886719 68.046875 72.628906 67.441406 72.453125 66.753906 C 72.238281 65.851562 71.894531 65.460938 71.335938 65.460938 C 70.605469 65.460938 70.519531 65.808594 70.519531 69.339844 Z M 74.820312 67.832031 C 74.820312 68.175781 74.648438 68.476562 74.390625 68.476562 C 74.175781 68.476562 74.089844 68.175781 74.21875 67.832031 C 74.390625 67.488281 74.5625 67.183594 74.648438 67.183594 C 74.734375 67.183594 74.820312 67.488281 74.820312 67.832031 Z M 74.820312 67.832031 "/>
<path style=" stroke:none;fill-rule:nonzero;fill:rgb(0%,0%,0%);fill-opacity:1;" d="M 78.90625 66.410156 C 78.777344 66.96875 78.476562 68.347656 78.261719 69.554688 C 78.003906 70.714844 77.699219 72.050781 77.570312 72.4375 C 77.398438 73 77.570312 73.214844 78.21875 73.214844 C 78.820312 73.214844 79.121094 72.957031 79.121094 72.351562 C 79.121094 71.792969 79.421875 71.492188 79.9375 71.492188 C 80.367188 71.492188 80.839844 71.878906 80.96875 72.351562 C 81.097656 72.828125 81.527344 73.214844 81.914062 73.214844 C 82.34375 73.214844 82.558594 73 82.429688 72.65625 C 82.300781 72.308594 81.957031 70.585938 81.65625 68.777344 C 81.140625 65.761719 81.011719 65.460938 80.109375 65.460938 C 79.464844 65.460938 79.078125 65.761719 78.90625 66.410156 Z M 80.410156 68.90625 C 80.410156 69.597656 80.238281 70.199219 79.980469 70.199219 C 79.507812 70.199219 79.378906 68.347656 79.851562 67.917969 C 80.324219 67.398438 80.410156 67.574219 80.410156 68.90625 Z M 80.410156 68.90625 "/>
<path style=" stroke:none;fill-rule:nonzero;fill:rgb(0%,0%,0%);fill-opacity:1;" d="M 84.28125 66.109375 C 84.28125 66.453125 84.625 66.753906 85.054688 66.753906 C 85.699219 66.753906 85.785156 67.140625 85.65625 69.984375 C 85.527344 73.042969 85.570312 73.214844 86.429688 73.214844 C 87.289062 73.214844 87.332031 73.042969 87.203125 69.984375 C 87.03125 67.097656 87.117188 66.753906 87.804688 66.753906 C 88.234375 66.753906 88.578125 66.453125 88.578125 66.109375 C 88.578125 65.632812 88.0625 65.460938 86.429688 65.460938 C 84.796875 65.460938 84.28125 65.632812 84.28125 66.109375 Z M 84.28125 66.109375 "/>
<path style=" stroke:none;fill-rule:nonzero;fill:rgb(0%,0%,0%);fill-opacity:1;" d="M 90.644531 69.339844 L 90.773438 73.214844 L 92.492188 73.214844 C 93.867188 73.214844 94.171875 73.085938 94.171875 72.351562 C 94.171875 71.621094 93.953125 71.535156 93.09375 71.75 C 92.148438 71.964844 92.019531 71.878906 92.019531 70.886719 C 92.019531 70.070312 92.234375 69.769531 92.878906 69.769531 C 93.351562 69.769531 93.738281 69.46875 93.738281 69.121094 C 93.738281 68.777344 93.351562 68.476562 92.878906 68.476562 C 92.320312 68.476562 92.019531 68.175781 92.019531 67.617188 C 92.019531 66.96875 92.320312 66.753906 93.09375 66.753906 C 93.78125 66.753906 94.171875 66.496094 94.171875 66.109375 C 94.171875 65.632812 93.695312 65.460938 92.363281 65.460938 L 90.515625 65.460938 Z M 90.644531 69.339844 "/>
</g>
</svg>