<?xml version="1.0" encoding="UTF-8"?>
<svg xmlns="http://www.w3.org/2000/svg" xmlns:xlink="http://www.w3.org/1999/xlink" width="180px" height="114px" viewBox="0 0 179 114" version="1.1">
<g id="surface1">
<path style=" stroke:none;fill-rule:nonzero;fill:rgb(0%,0%,0%);fill-opacity:1;" d="M 80.132812 20.597656 C 69.035156 23.289062 59.367188 32.871094 56.386719 44.066406 C 55.132812 48.738281 55.132812 57.179688 56.386719 61.492188 C 59.605469 72.628906 67.839844 81.070312 78.761719 84.480469 C 83.355469 85.917969 90.691406 86.160156 95.464844 85.082031 C 111.160156 81.429688 122.199219 66.398438 120.945312 50.355469 C 119.871094 36.222656 109.90625 24.25 96.300781 20.65625 C 92.183594 19.578125 84.429688 19.578125 80.132812 20.597656 Z M 96.363281 22.152344 C 101.195312 23.53125 104.65625 25.207031 107.160156 27.363281 C 108.117188 28.199219 109.488281 29.339844 110.203125 29.9375 C 112.292969 31.554688 116.769531 38.617188 117.902344 42.089844 C 119.09375 45.625 119.570312 49.15625 119.570312 53.886719 C 119.511719 58.136719 119.15625 59.933594 117.542969 64.363281 C 114.082031 73.523438 106.683594 80.230469 96.242188 83.585938 C 92.125 84.839844 82.28125 84.421875 77.566406 82.746094 C 70.347656 80.171875 63.605469 74.242188 60.261719 67.597656 C 57.636719 62.507812 56.863281 59.09375 56.800781 52.75 C 56.742188 43.828125 59.667969 36.582031 65.992188 30.175781 C 73.808594 22.273438 85.742188 19.101562 96.363281 22.152344 Z M 96.363281 22.152344 "/>
<path style=" stroke:none;fill-rule:nonzero;fill:rgb(0%,0%,0%);fill-opacity:1;" d="M 82.9375 28.859375 C 80.074219 30.117188 74.703125 34.964844 72.496094 38.378906 C 70.585938 41.371094 70.167969 44.367188 70.167969 54.484375 C 70.226562 66.28125 70.40625 68.136719 72.136719 71.429688 C 74.34375 75.800781 77.6875 77.355469 84.847656 77.417969 C 91.765625 77.476562 94.511719 76.699219 97.734375 73.882812 C 99.40625 72.449219 101.015625 71.25 101.3125 71.25 C 102.507812 71.25 105.011719 67.539062 105.847656 64.484375 C 106.980469 60.53125 106.742188 55.503906 105.371094 53.945312 C 104.535156 53.046875 103.640625 52.808594 100.835938 52.929688 C 96.957031 53.109375 95.464844 54.066406 95.464844 56.519531 C 95.464844 57.777344 95.167969 58.078125 93.976562 58.078125 C 93.078125 58.078125 91.828125 58.738281 91.050781 59.574219 C 89.621094 61.132812 88.546875 61.429688 87.171875 60.53125 C 86.097656 59.875 85.5625 44.90625 86.578125 44.308594 C 86.933594 44.066406 87.828125 44.007812 88.664062 44.1875 C 89.859375 44.425781 90.097656 44.785156 90.097656 46.703125 C 90.097656 49.574219 91.410156 50.714844 95.109375 50.832031 C 98.390625 50.894531 100.957031 49.636719 100.71875 48.019531 C 100.597656 47.300781 101.015625 46.941406 102.328125 46.820312 C 105.667969 46.402344 106.386719 45.144531 106.027344 40.296875 C 105.609375 34.308594 103.699219 30.65625 100.179688 28.917969 C 96.601562 27.183594 86.992188 27.121094 82.9375 28.859375 Z M 97.554688 29.339844 C 102.148438 30.355469 105.011719 35.445312 105.011719 42.511719 C 105.011719 45.265625 104.117188 45.742188 99.582031 45.382812 L 96.957031 45.203125 L 96.660156 42.511719 C 96.480469 41.011719 96.121094 39.457031 95.882812 39.039062 C 95.226562 38.078125 87.054688 38.019531 86.039062 39.039062 C 84.785156 40.296875 85.261719 40.773438 86.816406 39.757812 C 87.769531 39.15625 88.308594 39.039062 88.308594 39.457031 C 88.308594 39.996094 88.664062 39.996094 89.679688 39.457031 C 90.992188 38.738281 90.992188 38.738281 89.859375 40.054688 C 89.203125 40.714844 88.964844 41.3125 89.320312 41.3125 C 89.621094 41.3125 90.394531 40.773438 90.992188 40.117188 C 92.246094 38.738281 93.617188 38.4375 92.484375 39.816406 C 92.007812 40.355469 91.945312 40.714844 92.363281 40.714844 C 92.722656 40.714844 93.199219 40.414062 93.378906 40.117188 C 93.558594 39.757812 94.09375 39.515625 94.453125 39.515625 C 94.871094 39.578125 94.394531 40.234375 93.378906 41.011719 C 92.421875 41.851562 91.945312 42.511719 92.421875 42.511719 C 93.078125 42.511719 93.078125 42.691406 92.484375 43.410156 C 91.886719 44.128906 91.886719 44.308594 92.484375 44.308594 C 93.078125 44.308594 93.078125 44.488281 92.484375 45.203125 C 92.066406 45.683594 91.46875 46.101562 91.171875 46.101562 C 90.8125 46.101562 90.871094 45.683594 91.289062 45.203125 C 91.886719 44.488281 91.886719 44.308594 91.289062 44.308594 C 90.691406 44.308594 90.691406 44.128906 91.289062 43.410156 C 91.886719 42.691406 91.707031 42.570312 89.796875 42.808594 C 87.828125 43.109375 87.648438 42.988281 88.308594 42.210938 C 88.84375 41.550781 88.84375 41.3125 88.367188 41.3125 C 87.949219 41.3125 87.828125 41.011719 88.007812 40.714844 C 88.546875 39.816406 87.890625 39.996094 86.21875 41.074219 C 84.726562 42.03125 84.726562 42.152344 84.726562 50.535156 C 84.726562 61.492188 84.964844 61.96875 90.097656 62.03125 C 95.882812 62.148438 96.539062 61.730469 96.78125 57.957031 L 96.957031 54.785156 L 101.015625 54.605469 L 105.011719 54.425781 L 105.011719 59.394531 C 105.011719 65.203125 103.640625 68.316406 100.238281 70.292969 C 98.449219 71.371094 97.136719 71.550781 90.992188 71.550781 C 82.28125 71.550781 80.492188 70.769531 78.164062 66.160156 C 76.730469 63.226562 76.671875 62.808594 76.671875 50.59375 C 76.671875 38.378906 76.730469 37.960938 78.164062 35.085938 C 79 33.410156 80.3125 31.613281 81.148438 31.015625 C 83.890625 29.039062 92.484375 28.140625 97.554688 29.339844 Z M 76.074219 36.523438 C 75.121094 37.480469 74.046875 38.320312 73.746094 38.320312 C 73.03125 38.257812 76.671875 34.726562 77.386719 34.726562 C 77.625 34.726562 77.03125 35.503906 76.074219 36.523438 Z M 75.957031 38.4375 C 75.71875 38.859375 75.476562 39.9375 75.476562 40.835938 C 75.476562 41.972656 74.882812 42.929688 73.449219 44.007812 C 71.183594 45.683594 71.363281 46.101562 73.6875 44.546875 C 74.523438 44.007812 75.179688 43.828125 75.179688 44.128906 C 75.179688 44.425781 74.34375 45.144531 73.332031 45.742188 C 72.316406 46.34375 71.660156 46.941406 71.839844 47.179688 C 72.019531 47.359375 72.675781 47.0625 73.269531 46.523438 C 73.867188 45.921875 74.644531 45.503906 74.941406 45.503906 C 75.238281 45.5625 74.523438 46.34375 73.390625 47.300781 C 72.257812 48.316406 71.71875 49.097656 72.136719 49.097656 C 72.792969 49.097656 72.792969 49.277344 72.136719 50.113281 C 71.363281 51.011719 71.421875 51.011719 72.613281 50.414062 C 74.285156 49.515625 75 48.378906 73.570312 48.917969 C 72.613281 49.277344 72.613281 49.214844 73.332031 48.316406 C 74.582031 46.703125 75.0625 47.121094 74.941406 49.695312 C 74.882812 51.011719 75.0625 52.089844 75.359375 52.089844 C 75.65625 52.089844 75.597656 52.507812 75.179688 52.988281 C 74.582031 53.707031 74.582031 53.886719 75.179688 53.886719 C 75.777344 53.886719 75.777344 54.066406 75.179688 54.785156 C 74.582031 55.503906 74.582031 55.683594 75.179688 55.683594 C 75.777344 55.683594 75.777344 55.863281 75.179688 56.582031 C 74.644531 57.238281 74.644531 57.480469 75.121094 57.480469 C 75.539062 57.480469 75.65625 57.71875 75.476562 58.078125 C 75.300781 58.378906 74.820312 58.675781 74.523438 58.675781 C 74.164062 58.675781 74.105469 58.378906 74.285156 58.078125 C 74.820312 57.179688 74.164062 57.359375 72.496094 58.4375 C 71.660156 58.976562 71.003906 59.15625 71.003906 58.855469 C 71.003906 58.558594 71.839844 57.839844 72.851562 57.238281 C 73.867188 56.640625 74.523438 56.042969 74.34375 55.800781 C 74.164062 55.621094 73.507812 55.921875 72.914062 56.460938 C 72.316406 57.058594 71.539062 57.480469 71.242188 57.480469 C 70.945312 57.417969 71.660156 56.640625 72.792969 55.683594 C 73.925781 54.664062 74.464844 53.886719 74.046875 53.886719 C 73.390625 53.886719 73.390625 53.707031 73.988281 52.988281 C 74.582031 52.269531 74.582031 52.089844 73.988281 52.089844 C 73.449219 52.089844 73.449219 51.851562 74.046875 51.074219 C 74.820312 50.175781 74.761719 50.175781 73.570312 50.773438 C 71.898438 51.671875 71.183594 52.808594 72.613281 52.269531 C 73.570312 51.910156 73.570312 51.96875 72.554688 53.226562 C 71.363281 54.546875 71.363281 54.546875 72.554688 54.125 C 73.570312 53.707031 73.570312 53.765625 72.851562 54.664062 C 72.433594 55.203125 71.839844 55.683594 71.660156 55.683594 C 71.421875 55.683594 71.242188 53.109375 71.242188 49.996094 L 71.300781 44.246094 L 73.269531 42.988281 C 74.34375 42.332031 75.0625 41.613281 74.882812 41.433594 C 74.761719 41.253906 74.105469 41.550781 73.507812 42.089844 C 72.195312 43.289062 71.183594 43.46875 72.136719 42.332031 C 72.496094 41.851562 72.554688 41.3125 72.316406 41.074219 C 72.078125 40.835938 72.734375 39.9375 73.6875 39.15625 C 75.65625 37.601562 76.730469 37.300781 75.957031 38.4375 Z M 94.871094 41.613281 C 94.453125 42.089844 94.394531 42.511719 94.691406 42.511719 C 96.0625 42.511719 95.226562 44.964844 93.378906 46.34375 C 90.453125 48.617188 89.976562 48.199219 92.78125 45.742188 C 94.152344 44.605469 94.632812 43.886719 93.976562 44.128906 C 92.902344 44.488281 92.902344 44.425781 93.617188 43.527344 C 94.214844 42.75 94.214844 42.511719 93.675781 42.511719 C 93.078125 42.511719 93.078125 42.332031 93.675781 41.613281 C 94.09375 41.132812 94.691406 40.714844 94.988281 40.714844 C 95.347656 40.714844 95.289062 41.132812 94.871094 41.613281 Z M 87.113281 42.210938 C 86.695312 42.691406 86.097656 43.109375 85.800781 43.109375 C 85.441406 43.109375 85.503906 42.691406 85.921875 42.210938 C 86.335938 41.730469 86.933594 41.3125 87.234375 41.3125 C 87.589844 41.3125 87.53125 41.730469 87.113281 42.210938 Z M 95.464844 46.402344 C 94.871094 47.121094 94.871094 47.300781 95.527344 47.300781 C 96.003906 47.300781 95.585938 48.019531 94.570312 48.917969 C 93.558594 49.816406 92.722656 50.175781 92.601562 49.753906 C 92.484375 49.394531 92.125 49.214844 91.828125 49.457031 C 90.453125 50.292969 91.46875 48.617188 93.199219 47.179688 C 95.347656 45.382812 96.660156 44.964844 95.464844 46.402344 Z M 99.644531 46.582031 C 99.644531 46.703125 99.046875 47.359375 98.332031 47.960938 L 96.957031 49.15625 L 98.332031 48.496094 C 99.941406 47.71875 100.121094 48.496094 98.507812 49.515625 C 97.613281 50.113281 97.316406 50.113281 97.078125 49.515625 C 96.898438 48.976562 96.601562 48.976562 95.882812 49.636719 C 95.289062 50.054688 94.871094 50.234375 94.871094 49.933594 C 94.871094 49.695312 95.585938 48.796875 96.539062 48.078125 C 97.613281 47.121094 97.792969 46.820312 97.019531 47.121094 C 96.300781 47.359375 96.003906 47.300781 96.242188 46.882812 C 96.601562 46.28125 99.644531 46.101562 99.644531 46.582031 Z M 72.851562 59.933594 C 72.078125 60.59375 71.300781 60.953125 71.121094 60.773438 C 70.703125 60.414062 72.851562 58.738281 73.6875 58.738281 C 74.046875 58.738281 73.628906 59.273438 72.851562 59.933594 Z M 95.167969 59.035156 C 96.003906 59.394531 96.003906 59.515625 95.109375 60.53125 C 94.570312 61.191406 93.796875 61.671875 93.496094 61.671875 C 93.140625 61.671875 93.378906 61.070312 94.035156 60.351562 C 95.226562 58.976562 94.214844 59.335938 92.363281 60.953125 C 91.765625 61.429688 91.289062 61.550781 91.289062 61.25 C 91.289062 60.890625 91.886719 60.171875 92.664062 59.695312 C 94.273438 58.558594 93.976562 58.617188 95.167969 59.035156 Z M 75.597656 60.292969 C 75.597656 60.890625 75 61.789062 74.34375 62.386719 C 73.628906 62.925781 73.390625 63.40625 73.746094 63.464844 C 74.046875 63.464844 74.644531 63.167969 75.0625 62.746094 C 75.476562 62.328125 75.777344 62.269531 75.777344 62.566406 C 75.777344 62.925781 74.820312 63.824219 73.6875 64.605469 C 72.496094 65.382812 71.71875 66.160156 71.898438 66.339844 C 72.078125 66.519531 72.554688 66.339844 72.914062 65.980469 C 73.332031 65.5625 73.925781 65.261719 74.285156 65.261719 C 74.582031 65.324219 74.226562 65.863281 73.449219 66.519531 C 71.839844 67.835938 71.480469 67.71875 71.242188 65.503906 C 71.121094 64.425781 71.539062 63.527344 72.375 62.808594 C 73.089844 62.210938 73.390625 61.730469 73.089844 61.671875 C 72.734375 61.671875 72.136719 61.96875 71.71875 62.386719 C 71.300781 62.808594 71.003906 62.867188 71.003906 62.507812 C 71.003906 61.96875 74.523438 59.273438 75.238281 59.273438 C 75.417969 59.273438 75.597656 59.753906 75.597656 60.292969 Z M 76.195312 64.425781 C 76.015625 64.664062 76.375 65.863281 77.03125 67.179688 C 77.984375 69.035156 78.105469 69.753906 77.507812 70.410156 C 77.148438 70.890625 76.550781 71.25 76.195312 71.25 C 75.894531 71.25 76.074219 70.710938 76.671875 70.050781 C 77.746094 68.855469 77.746094 68.796875 76.613281 69.214844 C 75.597656 69.632812 75.597656 69.574219 76.3125 68.675781 C 77.03125 67.71875 77.03125 67.65625 76.015625 68.078125 C 75 68.4375 75 68.375 75.71875 67.476562 C 76.910156 65.980469 75.894531 66.21875 73.867188 67.957031 C 72.914062 68.796875 72.375 69.453125 72.734375 69.453125 C 73.03125 69.453125 73.507812 69.15625 73.6875 68.855469 C 73.867188 68.496094 74.34375 68.257812 74.703125 68.257812 C 75.0625 68.257812 74.882812 68.855469 74.226562 69.574219 C 73.628906 70.351562 73.507812 70.589844 73.988281 70.171875 C 74.464844 69.8125 75.121094 69.453125 75.476562 69.453125 C 75.777344 69.511719 75.417969 70.050781 74.644531 70.710938 L 73.152344 71.910156 L 72.316406 70.351562 C 71.601562 68.914062 71.601562 68.675781 72.613281 67.957031 C 75.417969 65.863281 76.015625 65.324219 75.300781 65.261719 C 74.34375 65.261719 74.941406 64.066406 75.894531 64.066406 C 76.253906 64.066406 76.433594 64.246094 76.195312 64.425781 Z M 81.503906 71.847656 C 83.175781 72.449219 83.472656 72.6875 82.878906 73.40625 C 82.519531 73.882812 81.921875 74.242188 81.625 74.242188 C 81.265625 74.242188 81.324219 73.824219 81.742188 73.34375 C 82.160156 72.867188 82.21875 72.449219 81.863281 72.449219 C 81.5625 72.449219 80.96875 72.867188 80.550781 73.34375 C 80.011719 74.003906 80.011719 74.242188 80.492188 74.242188 C 80.90625 74.242188 81.027344 74.484375 80.847656 74.84375 C 80.191406 75.859375 81.148438 75.5 83.292969 73.882812 C 84.429688 72.988281 85.324219 72.628906 85.324219 72.988281 C 85.324219 73.523438 85.621094 73.523438 86.515625 73.046875 C 87.351562 72.566406 87.710938 72.566406 87.710938 73.046875 C 87.710938 73.523438 88.066406 73.523438 88.902344 73.046875 C 89.796875 72.566406 90.097656 72.566406 90.097656 73.164062 C 90.097656 73.703125 90.277344 73.703125 90.8125 73.164062 C 92.007812 71.96875 92.722656 72.386719 91.589844 73.644531 C 90.992188 74.304688 90.753906 74.84375 91.109375 74.84375 C 91.410156 74.84375 92.183594 74.304688 92.78125 73.644531 C 93.378906 72.988281 94.394531 72.507812 95.109375 72.566406 C 95.765625 72.566406 96.839844 72.386719 97.4375 72.148438 C 97.972656 71.910156 98.449219 71.847656 98.449219 71.96875 C 98.449219 72.507812 93.019531 76.160156 92.722656 75.859375 C 92.542969 75.679688 93.078125 75.082031 93.914062 74.484375 C 94.808594 73.945312 95.347656 73.34375 95.226562 73.164062 C 95.050781 73.046875 93.855469 73.765625 92.601562 74.78125 C 90.097656 76.757812 88.84375 77.238281 90.097656 75.742188 C 90.632812 75.082031 90.632812 74.84375 90.15625 74.84375 C 89.738281 74.84375 89.621094 74.542969 89.796875 74.242188 C 90.394531 73.285156 89.558594 73.523438 87.648438 74.960938 C 85.859375 76.28125 80.550781 76.996094 80.550781 75.921875 C 80.550781 75.679688 80.074219 75.679688 79.535156 75.859375 C 78.582031 76.21875 78.582031 76.160156 79.296875 75.261719 C 79.894531 74.484375 79.953125 74.242188 79.355469 74.242188 C 78.820312 74.242188 78.9375 73.824219 79.65625 73.046875 C 80.730469 71.847656 80.730469 71.789062 79.65625 72.207031 C 78.878906 72.507812 78.699219 72.449219 79 71.96875 C 79.65625 70.832031 78.820312 71.128906 76.789062 72.6875 C 75.238281 73.824219 74.761719 74.003906 74.164062 73.34375 C 73.6875 72.808594 73.628906 72.449219 74.164062 71.910156 C 75.179688 70.890625 76.015625 71.128906 75.179688 72.148438 C 74.105469 73.464844 74.644531 73.285156 76.96875 71.550781 C 78.105469 70.710938 79.117188 70.292969 79.238281 70.589844 C 79.355469 70.890625 80.371094 71.488281 81.503906 71.847656 Z M 77.863281 73.644531 C 76.789062 74.84375 76.789062 74.902344 77.925781 74.484375 C 78.761719 74.183594 78.878906 74.242188 78.402344 74.78125 C 78.042969 75.140625 77.328125 75.320312 76.730469 75.082031 C 75.777344 74.722656 75.777344 74.601562 76.730469 73.585938 C 77.269531 72.925781 78.042969 72.449219 78.34375 72.449219 C 78.699219 72.449219 78.460938 72.988281 77.863281 73.644531 Z M 88.902344 75.742188 C 88.484375 76.21875 87.890625 76.636719 87.589844 76.636719 C 87.234375 76.636719 87.292969 76.21875 87.710938 75.742188 C 88.128906 75.261719 88.722656 74.84375 89.023438 74.84375 C 89.378906 74.84375 89.320312 75.261719 88.902344 75.742188 Z M 88.902344 75.742188 "/>
<path style=" stroke:none;fill-rule:nonzero;fill:rgb(0%,0%,0%);fill-opacity:1;" d="M 90.097656 41.613281 C 89.679688 42.089844 89.621094 42.511719 89.976562 42.511719 C 90.277344 42.511719 90.871094 42.089844 91.289062 41.613281 C 91.707031 41.132812 91.765625 40.714844 91.410156 40.714844 C 91.109375 40.714844 90.515625 41.132812 90.097656 41.613281 Z M 90.097656 41.613281 "/>
<path style=" stroke:none;fill-rule:nonzero;fill:rgb(0%,0%,0%);fill-opacity:1;" d="M 73.332031 40.535156 C 72.554688 41.433594 72.613281 41.433594 73.867188 40.773438 C 75.238281 40.054688 75.539062 39.515625 74.644531 39.515625 C 74.34375 39.515625 73.746094 39.9375 73.332031 40.535156 Z M 73.332031 40.535156 "/>
<path style=" stroke:none;fill-rule:nonzero;fill:rgb(0%,0%,0%);fill-opacity:1;" d="M 93.078125 48.199219 C 92.664062 48.675781 92.601562 49.097656 92.960938 49.097656 C 93.257812 49.097656 93.855469 48.675781 94.273438 48.199219 C 94.691406 47.71875 94.75 47.300781 94.394531 47.300781 C 94.09375 47.300781 93.496094 47.71875 93.078125 48.199219 Z M 93.078125 48.199219 "/>
<path style=" stroke:none;fill-rule:nonzero;fill:rgb(0%,0%,0%);fill-opacity:1;" d="M 73.6875 61.070312 C 73.507812 61.371094 73.570312 61.671875 73.925781 61.671875 C 74.226562 61.671875 74.703125 61.371094 74.882812 61.070312 C 75.0625 60.710938 75 60.472656 74.644531 60.472656 C 74.34375 60.472656 73.867188 60.710938 73.6875 61.070312 Z M 73.6875 61.070312 "/>
<path style=" stroke:none;fill-rule:nonzero;fill:rgb(0%,0%,0%);fill-opacity:1;" d="M 71.898438 64.066406 C 71.71875 64.363281 71.777344 64.664062 72.136719 64.664062 C 72.433594 64.664062 72.914062 64.363281 73.089844 64.066406 C 73.269531 63.707031 73.210938 63.464844 72.851562 63.464844 C 72.554688 63.464844 72.078125 63.707031 71.898438 64.066406 Z M 71.898438 64.066406 "/>
<path style=" stroke:none;fill-rule:nonzero;fill:rgb(0%,0%,0%);fill-opacity:1;" d="M 83.175781 74.902344 C 82.042969 76.21875 82.042969 76.21875 83.355469 75.5 C 84.785156 74.78125 85.679688 73.644531 84.847656 73.644531 C 84.546875 73.644531 83.832031 74.242188 83.175781 74.902344 Z M 83.175781 74.902344 "/>
<path style=" stroke:none;fill-rule:nonzero;fill:rgb(0%,0%,0%);fill-opacity:1;" d="M 85.5625 74.960938 L 84.429688 76.21875 L 86.097656 75.140625 C 87.769531 74.0625 88.066406 73.644531 87.234375 73.644531 C 86.933594 73.644531 86.21875 74.242188 85.5625 74.960938 Z M 85.5625 74.960938 "/>
<path style=" stroke:none;fill-rule:nonzero;fill:rgb(0%,0%,0%);fill-opacity:1;" d="M 46.0625 91.726562 C 45.109375 92.683594 45.109375 100.109375 46.0625 101.066406 C 47.078125 102.085938 49.820312 101.964844 50.777344 100.828125 C 51.96875 99.332031 51.910156 98.191406 50.65625 98.191406 C 50 98.191406 49.523438 98.613281 49.523438 99.152344 C 49.523438 99.691406 49.105469 99.988281 48.507812 99.871094 C 47.671875 99.75 47.375 98.972656 47.257812 96.21875 C 47.078125 93.105469 47.195312 92.804688 48.328125 92.804688 C 48.988281 92.804688 49.523438 93.222656 49.523438 93.703125 C 49.523438 94.601562 51.015625 94.960938 51.492188 94.121094 C 51.671875 93.882812 51.550781 93.105469 51.253906 92.324219 C 50.894531 91.308594 50.300781 91.007812 48.746094 91.007812 C 47.671875 91.007812 46.480469 91.308594 46.0625 91.726562 Z M 46.0625 91.726562 "/>
<path style=" stroke:none;fill-rule:nonzero;fill:rgb(0%,0%,0%);fill-opacity:1;" d="M 55.011719 91.726562 C 54.058594 92.683594 54.058594 100.109375 55.011719 101.066406 C 56.085938 102.144531 58.773438 101.964844 59.785156 100.707031 C 60.917969 99.449219 61.21875 93.042969 60.203125 91.847656 C 59.367188 90.828125 55.96875 90.769531 55.011719 91.726562 Z M 58.652344 96.398438 C 58.652344 99.210938 58.472656 99.691406 57.519531 99.691406 C 56.5625 99.691406 56.386719 99.152344 56.207031 96.21875 C 56.027344 92.925781 56.085938 92.746094 57.339844 92.925781 C 58.472656 93.105469 58.652344 93.464844 58.652344 96.398438 Z M 58.652344 96.398438 "/>
<path style=" stroke:none;fill-rule:nonzero;fill:rgb(0%,0%,0%);fill-opacity:1;" d="M 63.246094 95.679688 C 63.246094 100.769531 63.722656 101.785156 66.230469 101.785156 C 68.914062 101.785156 69.808594 100.167969 69.808594 95.320312 C 69.808594 91.367188 69.691406 91.007812 68.558594 91.007812 C 67.421875 91.007812 67.363281 91.308594 67.484375 95.320312 C 67.601562 99.269531 67.542969 99.691406 66.46875 99.691406 C 65.453125 99.691406 65.335938 99.210938 65.335938 95.320312 C 65.335938 91.605469 65.214844 91.007812 64.320312 91.007812 C 63.367188 91.007812 63.246094 91.605469 63.246094 95.679688 Z M 63.246094 95.679688 "/>
<path style=" stroke:none;fill-rule:nonzero;fill:rgb(0%,0%,0%);fill-opacity:1;" d="M 72.195312 96.335938 C 72.195312 100.769531 72.375 101.785156 73.089844 101.785156 C 73.6875 101.785156 73.988281 101.128906 73.988281 99.691406 C 73.988281 98.253906 74.285156 97.59375 74.882812 97.59375 C 75.359375 97.59375 75.894531 98.433594 76.132812 99.691406 C 76.433594 101.246094 76.789062 101.785156 77.6875 101.785156 C 78.640625 101.785156 78.761719 101.546875 78.34375 100.410156 C 78.105469 99.691406 77.863281 97.355469 77.863281 95.199219 L 77.863281 91.308594 L 75.0625 91.128906 L 72.195312 90.949219 Z M 76.375 94.300781 C 76.375 95.378906 76.074219 95.796875 75.179688 95.796875 C 74.285156 95.796875 73.988281 95.378906 73.988281 94.300781 C 73.988281 93.222656 74.285156 92.804688 75.179688 92.804688 C 76.074219 92.804688 76.375 93.222656 76.375 94.300781 Z M 76.375 94.300781 "/>
<path style=" stroke:none;fill-rule:nonzero;fill:rgb(0%,0%,0%);fill-opacity:1;" d="M 81.863281 91.726562 C 81.445312 92.144531 81.148438 93.164062 81.148438 94.003906 C 81.148438 95.917969 82.160156 96.996094 83.949219 96.996094 C 85.023438 96.996094 85.324219 97.355469 85.324219 98.492188 C 85.324219 100.167969 83.710938 100.589844 83.175781 99.089844 C 82.699219 97.835938 81.148438 97.953125 81.148438 99.269531 C 81.148438 100.769531 82.339844 101.785156 84.128906 101.785156 C 86.160156 101.785156 87.113281 100.769531 87.113281 98.492188 C 87.113281 96.277344 86.160156 95.199219 84.308594 95.199219 C 83.355469 95.199219 82.9375 94.839844 82.9375 94.003906 C 82.9375 92.503906 84.429688 92.445312 85.800781 93.824219 C 86.753906 94.78125 86.816406 94.71875 86.992188 93.761719 C 87.472656 91.488281 83.652344 89.929688 81.863281 91.726562 Z M 81.863281 91.726562 "/>
<path style=" stroke:none;fill-rule:nonzero;fill:rgb(0%,0%,0%);fill-opacity:1;" d="M 90.097656 96.457031 L 90.097656 101.84375 L 92.664062 101.664062 C 94.394531 101.546875 95.167969 101.1875 95.167969 100.589844 C 95.167969 99.988281 94.691406 99.75 93.558594 99.871094 C 92.125 99.988281 91.886719 99.808594 91.886719 98.492188 C 91.886719 97.414062 92.183594 96.996094 93.078125 96.996094 C 93.738281 96.996094 94.273438 96.578125 94.273438 96.097656 C 94.273438 95.617188 93.738281 95.199219 93.078125 95.199219 C 92.304688 95.199219 91.886719 94.78125 91.886719 94.003906 C 91.886719 93.042969 92.304688 92.804688 93.675781 92.804688 C 94.871094 92.804688 95.464844 92.503906 95.464844 91.90625 C 95.464844 91.246094 94.75 91.007812 92.78125 91.007812 L 90.097656 91.007812 Z M 90.097656 96.457031 "/>
<path style=" stroke:none;fill-rule:nonzero;fill:rgb(0%,0%,0%);fill-opacity:1;" d="M 97.851562 96.398438 C 97.851562 100.648438 98.03125 101.785156 98.6875 101.785156 C 99.285156 101.785156 99.582031 100.828125 99.761719 98.492188 C 99.824219 96.695312 99.761719 95.199219 99.523438 95.199219 C 99.226562 95.199219 99.046875 94.71875 99.046875 94.121094 C 99.105469 93.222656 99.164062 93.285156 99.761719 94.300781 C 100.179688 94.960938 100.480469 96.039062 100.539062 96.695312 C 100.539062 98.433594 102.449219 98.613281 102.804688 96.875 C 102.925781 96.097656 103.105469 96.9375 103.164062 98.613281 C 103.222656 101.007812 103.460938 101.785156 104.117188 101.785156 C 104.835938 101.785156 105.011719 100.769531 105.011719 96.398438 C 105.011719 91.488281 104.894531 91.007812 103.878906 91.007812 C 103.105469 91.007812 102.625 91.546875 102.328125 92.804688 C 102.089844 93.761719 101.730469 94.601562 101.433594 94.601562 C 101.136719 94.601562 100.777344 93.761719 100.539062 92.804688 C 100.238281 91.546875 99.761719 91.007812 98.988281 91.007812 C 97.972656 91.007812 97.851562 91.488281 97.851562 96.398438 Z M 103.820312 94.300781 C 103.820312 94.78125 103.582031 95.199219 103.222656 95.199219 C 102.925781 95.199219 102.804688 94.78125 102.984375 94.300781 C 103.222656 93.824219 103.460938 93.402344 103.582031 93.402344 C 103.699219 93.402344 103.820312 93.824219 103.820312 94.300781 Z M 103.820312 94.300781 "/>
<path style=" stroke:none;fill-rule:nonzero;fill:rgb(0%,0%,0%);fill-opacity:1;" d="M 109.488281 92.324219 C 109.308594 93.105469 108.890625 95.019531 108.59375 96.695312 C 108.234375 98.3125 107.816406 100.167969 107.636719 100.707031 C 107.398438 101.488281 107.636719 101.785156 108.535156 101.785156 C 109.367188 101.785156 109.785156 101.425781 109.785156 100.589844 C 109.785156 99.808594 110.203125 99.390625 110.921875 99.390625 C 111.515625 99.390625 112.171875 99.929688 112.351562 100.589844 C 112.53125 101.246094 113.128906 101.785156 113.664062 101.785156 C 114.261719 101.785156 114.558594 101.488281 114.382812 101.007812 C 114.203125 100.527344 113.726562 98.132812 113.308594 95.617188 C 112.589844 91.425781 112.410156 91.007812 111.160156 91.007812 C 110.265625 91.007812 109.726562 91.425781 109.488281 92.324219 Z M 111.578125 95.796875 C 111.578125 96.757812 111.339844 97.59375 110.980469 97.59375 C 110.324219 97.59375 110.144531 95.019531 110.800781 94.421875 C 111.457031 93.703125 111.578125 93.941406 111.578125 95.796875 Z M 111.578125 95.796875 "/>
<path style=" stroke:none;fill-rule:nonzero;fill:rgb(0%,0%,0%);fill-opacity:1;" d="M 116.945312 91.90625 C 116.945312 92.386719 117.425781 92.804688 118.019531 92.804688 C 118.914062 92.804688 119.035156 93.34375 118.855469 97.296875 C 118.675781 101.546875 118.738281 101.785156 119.929688 101.785156 C 121.125 101.785156 121.183594 101.546875 121.003906 97.296875 C 120.765625 93.285156 120.882812 92.804688 121.839844 92.804688 C 122.4375 92.804688 122.914062 92.386719 122.914062 91.90625 C 122.914062 91.246094 122.199219 91.007812 119.929688 91.007812 C 117.664062 91.007812 116.945312 91.246094 116.945312 91.90625 Z M 116.945312 91.90625 "/>
<path style=" stroke:none;fill-rule:nonzero;fill:rgb(0%,0%,0%);fill-opacity:1;" d="M 125.777344 96.398438 L 125.957031 101.785156 L 128.34375 101.785156 C 130.253906 101.785156 130.671875 101.605469 130.671875 100.589844 C 130.671875 99.570312 130.371094 99.449219 129.179688 99.75 C 127.867188 100.050781 127.6875 99.929688 127.6875 98.550781 C 127.6875 97.414062 127.984375 96.996094 128.878906 96.996094 C 129.535156 96.996094 130.074219 96.578125 130.074219 96.097656 C 130.074219 95.617188 129.535156 95.199219 128.878906 95.199219 C 128.105469 95.199219 127.6875 94.78125 127.6875 94.003906 C 127.6875 93.105469 128.105469 92.804688 129.179688 92.804688 C 130.132812 92.804688 130.671875 92.445312 130.671875 91.90625 C 130.671875 91.246094 130.011719 91.007812 128.164062 91.007812 L 125.597656 91.007812 Z M 125.777344 96.398438 "/>
</g>
</svg>